<?xml version="1.0" standalone="no"?><!DOCTYPE svg PUBLIC "-//W3C//DTD SVG 1.1//EN" "http://www.w3.org/Graphics/SVG/1.1/DTD/svg11.dtd"><svg t="1761573339741" class="icon" viewBox="0 0 1024 1024" version="1.1" xmlns="http://www.w3.org/2000/svg" p-id="7074" xmlns:xlink="http://www.w3.org/1999/xlink" width="32" height="32"><path d="M512 1002.666667c270.997333 0 490.666667-219.669333 490.666667-490.666667S782.997333 21.333333 512 21.333333 21.333333 241.002667 21.333333 512s219.669333 490.666667 490.666667 490.666667z m0 21.333333C229.226667 1024 0 794.773333 0 512S229.226667 0 512 0s512 229.226667 512 512-229.226667 512-512 512z" fill="#006BDD" p-id="7075"></path><path d="M490.666667 490.666667v-181.333334a32 32 0 0 1 64 0V490.666667h181.333333a32 32 0 0 1 0 64H554.666667v181.333333a32 32 0 0 1-64 0V554.666667h-181.333334a32 32 0 0 1 0-64H490.666667z" fill="#006ADB" p-id="7076"></path></svg>