<?xml version="1.0" standalone="no"?><!DOCTYPE svg PUBLIC "-//W3C//DTD SVG 1.1//EN" "http://www.w3.org/Graphics/SVG/1.1/DTD/svg11.dtd"><svg t="1760592913884" class="icon" viewBox="0 0 1024 1024" version="1.1" xmlns="http://www.w3.org/2000/svg" p-id="13384" xmlns:xlink="http://www.w3.org/1999/xlink" width="32" height="32"><path d="M511.914667 128a42.581333 42.581333 0 0 0-42.581334 42.581333v106.581334H298.666667a128 128 0 0 0-128 128V768a128 128 0 0 0 128 128h426.666666a128 128 0 0 0 128-128V405.162667a128 128 0 0 0-128-128h-170.837333V170.581333A42.581333 42.581333 0 0 0 511.914667 128zM426.666667 499.2a72.533333 72.533333 0 1 1-145.066667 0 72.533333 72.533333 0 0 1 145.066667 0z m243.2 72.533333a72.533333 72.533333 0 1 1 0-145.066666 72.533333 72.533333 0 0 1 0 145.066666z m-388.266667 174.933334a21.333333 21.333333 0 0 1 21.333333-21.333334h85.333334a21.333333 21.333333 0 0 1 0 42.666667h-85.333334a21.333333 21.333333 0 0 1-21.333333-21.333333zM469.333333 725.333333h85.333334a21.333333 21.333333 0 0 1 0 42.666667h-85.333334a21.333333 21.333333 0 0 1 0-42.666667z m145.066667 21.333334a21.333333 21.333333 0 0 1 21.333333-21.333334h85.333334a21.333333 21.333333 0 0 1 0 42.666667h-85.333334a21.333333 21.333333 0 0 1-21.333333-21.333333zM42.666667 512a85.333333 85.333333 0 0 1 85.333333-85.333333v341.333333a85.333333 85.333333 0 0 1-85.333333-85.333333v-170.666667zM896 768v-341.333333a85.333333 85.333333 0 0 1 85.333333 85.333333v170.666667a85.333333 85.333333 0 0 1-85.333333 85.333333z" fill="#1296db" p-id="13385"></path></svg>