<?xml version="1.0" standalone="no"?><!DOCTYPE svg PUBLIC "-//W3C//DTD SVG 1.1//EN" "http://www.w3.org/Graphics/SVG/1.1/DTD/svg11.dtd"><svg t="1760592886413" class="icon" viewBox="0 0 1024 1024" version="1.1" xmlns="http://www.w3.org/2000/svg" p-id="11454" xmlns:xlink="http://www.w3.org/1999/xlink" width="32" height="32"><path d="M259.748489 260.937174a252.679192 250.166567 90 1 0 500.333134 0 252.679192 250.166567 90 1 0-500.333134 0Z" fill="#5282F0" p-id="11455"></path><path d="M925.08624 1011.463605H582.059469l106.011391-403.303041A418.859932 418.859932 0 0 1 926.315823 986.818496c0 8.339777-0.748441 16.465713-1.229583 24.645109z m-489.159971 0H98.085128c-0.400951-8.179396-1.229582-16.305332-1.229583-24.645109A418.859932 418.859932 0 0 1 332.133473 609.684177z" fill="#5282F0" p-id="11456"></path><path d="M467.628112 557.480383h84.867918a6.121182 6.121182 0 0 1 6.067722 6.174643l-15.15594 34.027357a6.121182 6.121182 0 0 1-6.067722 6.201373h-54.556038a6.121182 6.121182 0 0 1-6.067722-6.201373l-15.15594-34.027357a6.121182 6.121182 0 0 1 6.067722-6.174643z" fill="#5282F0" p-id="11457"></path><path d="M510.048706 995.799794c3.341257 0 48.488316-335.381976 48.488316-338.803423L543.381082 623.049204a6.121182 6.121182 0 0 0-6.067722-6.174643h-54.529308a6.121182 6.121182 0 0 0-6.067722 6.174643l-15.15594 33.947167c0 3.474907 45.0936 338.803423 48.488316 338.803423z" fill="#5282F0" p-id="11458"></path></svg>